        <svg
          xmlns="http://www.w3.org/2000/svg"
          viewBox="0 0 32 32"
          x="0px"
          y="0px"
          fill="#e7decb"
        >
          <title>music instrument orchestra</title>
          <g data-name="Layer 4">
            <path d="M27.5,2H4.5A2.50294,2.50294,0,0,0,2,4.5v23A2.50294,2.50294,0,0,0,4.5,30h23A2.50294,2.50294,0,0,0,30,27.5V4.5A2.50294,2.50294,0,0,0,27.5,2ZM29,27.5A1.50164,1.50164,0,0,1,27.5,29H4.5A1.50164,1.50164,0,0,1,3,27.5V4.5A1.50164,1.50164,0,0,1,4.5,3h23A1.50164,1.50164,0,0,1,29,4.5Z" />
            <path d="M7.5,24h-3a.49971.49971,0,0,0-.5.5v3a.49971.49971,0,0,0,.5.5h3a.49971.49971,0,0,0,.5-.5v-3A.49971.49971,0,0,0,7.5,24ZM7,27H5V25H7Z" />
            <path d="M12.5,24h-3a.49971.49971,0,0,0-.5.5v3a.49971.49971,0,0,0,.5.5h3a.49971.49971,0,0,0,.5-.5v-3A.49971.49971,0,0,0,12.5,24ZM12,27H10V25h2Z" />
            <path d="M17.5,24h-3a.49971.49971,0,0,0-.5.5v3a.49971.49971,0,0,0,.5.5h3a.49971.49971,0,0,0,.5-.5v-3A.49971.49971,0,0,0,17.5,24ZM17,27H15V25h2Z" />
            <path d="M22.5,24h-3a.49971.49971,0,0,0-.5.5v3a.49971.49971,0,0,0,.5.5h3a.49971.49971,0,0,0,.5-.5v-3A.49971.49971,0,0,0,22.5,24ZM22,27H20V25h2Z" />
            <path d="M7.5,19h-3a.49971.49971,0,0,0-.5.5v3a.49971.49971,0,0,0,.5.5h3a.49971.49971,0,0,0,.5-.5v-3A.49971.49971,0,0,0,7.5,19ZM7,22H5V20H7Z" />
            <path d="M12.5,19h-3a.49971.49971,0,0,0-.5.5v3a.49971.49971,0,0,0,.5.5h3a.49971.49971,0,0,0,.5-.5v-3A.49971.49971,0,0,0,12.5,19ZM12,22H10V20h2Z" />
            <path d="M17.5,19h-3a.49971.49971,0,0,0-.5.5v3a.49971.49971,0,0,0,.5.5h3a.49971.49971,0,0,0,.5-.5v-3A.49971.49971,0,0,0,17.5,19ZM17,22H15V20h2Z" />
            <path d="M22.5,19h-3a.49971.49971,0,0,0-.5.5v3a.49971.49971,0,0,0,.5.5h3a.49971.49971,0,0,0,.5-.5v-3A.49971.49971,0,0,0,22.5,19ZM22,22H20V20h2Z" />
            <path d="M7.5,14h-3a.49971.49971,0,0,0-.5.5v3a.49971.49971,0,0,0,.5.5h3a.49971.49971,0,0,0,.5-.5v-3A.49971.49971,0,0,0,7.5,14ZM7,17H5V15H7Z" />
            <path d="M12.5,14h-3a.49971.49971,0,0,0-.5.5v3a.49971.49971,0,0,0,.5.5h3a.49971.49971,0,0,0,.5-.5v-3A.49971.49971,0,0,0,12.5,14ZM12,17H10V15h2Z" />
            <path d="M17.5,14h-3a.49971.49971,0,0,0-.5.5v3a.49971.49971,0,0,0,.5.5h3a.49971.49971,0,0,0,.5-.5v-3A.49971.49971,0,0,0,17.5,14ZM17,17H15V15h2Z" />
            <path d="M22.5,14h-3a.49971.49971,0,0,0-.5.5v3a.49971.49971,0,0,0,.5.5h3a.49971.49971,0,0,0,.5-.5v-3A.49971.49971,0,0,0,22.5,14ZM22,17H20V15h2Z" />
            <path d="M7.5,9h-3a.49971.49971,0,0,0-.5.5v3a.49971.49971,0,0,0,.5.5h3a.49971.49971,0,0,0,.5-.5v-3A.49971.49971,0,0,0,7.5,9ZM7,12H5V10H7Z" />
            <path d="M12.5,9h-3a.49971.49971,0,0,0-.5.5v3a.49971.49971,0,0,0,.5.5h3a.49971.49971,0,0,0,.5-.5v-3A.49971.49971,0,0,0,12.5,9ZM12,12H10V10h2Z" />
            <path d="M17.5,9h-3a.49971.49971,0,0,0-.5.5v3a.49971.49971,0,0,0,.5.5h3a.49971.49971,0,0,0,.5-.5v-3A.49971.49971,0,0,0,17.5,9ZM17,12H15V10h2Z" />
            <path d="M22.5,9h-3a.49971.49971,0,0,0-.5.5v3a.49971.49971,0,0,0,.5.5h3a.49971.49971,0,0,0,.5-.5v-3A.49971.49971,0,0,0,22.5,9ZM22,12H20V10h2Z" />
            <circle cx="26" cy="24" r="0.5" />
            <path d="M27.5,19.5A.49971.49971,0,0,0,27,19H25a.49971.49971,0,0,0-.5.5v3.18262a1.9855,1.9855,0,0,0,0,2.63477V27.5a.49971.49971,0,0,0,.5.5h2a.49971.49971,0,0,0,.5-.5V25.31738a1.9855,1.9855,0,0,0,0-2.63477Zm-.82861,5.23291a.4998.4998,0,0,0-.17139.377V27h-1V25.10986a.4998.4998,0,0,0-.17139-.377.98162.98162,0,0,1,0-1.46582.4998.4998,0,0,0,.17139-.377V20h1v2.89014a.4998.4998,0,0,0,.17139.377.98162.98162,0,0,1,0,1.46582Z" />
            <circle cx="26" cy="13" r="0.5" />
            <path d="M27.5,9.5A.49971.49971,0,0,0,27,9H25a.49971.49971,0,0,0-.5.5v2.18262a1.9855,1.9855,0,0,0,0,2.63477V17.5a.49971.49971,0,0,0,.5.5h2a.49971.49971,0,0,0,.5-.5V14.31738a1.9855,1.9855,0,0,0,0-2.63477Zm-.82861,4.23291a.4998.4998,0,0,0-.17139.377V17h-1V14.10986a.4998.4998,0,0,0-.17139-.377.98162.98162,0,0,1,0-1.46582.4998.4998,0,0,0,.17139-.377V10h1v1.89014a.4998.4998,0,0,0,.17139.377.98162.98162,0,0,1,0,1.46582Z" />
            <circle cx="4.5" cy="4.5" r="0.5" />
            <circle cx="6.5" cy="4.5" r="0.5" />
            <path d="M8.5,5h3a.5.5,0,0,0,0-1h-3a.5.5,0,0,0,0,1Z" />
            <path d="M12,7.5a.49971.49971,0,0,0,.5.5h7a.49971.49971,0,0,0,.5-.5v-2a.49971.49971,0,0,0-.5-.5h-7a.49971.49971,0,0,0-.5.5ZM13,6h6V7H13Z" />
            <path d="M5,7v.5a.5.5,0,0,0,1,0V7h4.625a.5.5,0,0,0,0-1H6V5.5a.5.5,0,0,0-1,0V6H4.34375a.5.5,0,0,0,0,1Z" />
            <path d="M23.5,5h1a.5.5,0,0,0,0-1h-1a.5.5,0,0,0,0,1Z" />
            <path d="M27.5,4h-1a.5.5,0,0,0,0,1h1a.5.5,0,0,0,0-1Z" />
            <path d="M27.5,6h-1a.5.5,0,0,0,0,1h1a.5.5,0,0,0,0-1Z" />
            <path d="M25,6.5a.49971.49971,0,0,0-.5-.5h-1a.5.5,0,0,0,0,1h1A.49971.49971,0,0,0,25,6.5Z" />
          </g>
        </svg>

