        <svg
          xmlns="http://www.w3.org/2000/svg"
          viewBox="0 0 172 172"
          x="0px"
          y="0px"
          fillRule="evenodd"
          clipRule="evenodd"
          fill="#e7decb"
        >
          <defs></defs>
          <g>
            <g>
              <path d="M20.8771 55.9599c-4.605,0 -8.3511,3.7463 -8.3511,8.3507l0 82.0328c0,4.6038 3.7461,8.3503 8.3509,8.3503l131.641 0c4.6072,0 8.3537,-3.7465 8.3537,-8.3503l0 -82.0328c0,-4.6046 -3.7465,-8.3506 -8.3538,-8.3506l-131.64 -0.0001zm131.64 102.12l-131.64 0c-6.4721,0 -11.7378,-5.2633 -11.7378,-11.7368l0 -82.0328c0,-6.4723 5.2656,-11.7373 11.7376,-11.7373l131.641 -0.0003c6.4735,0 11.7403,5.2656 11.7403,11.7376l0.0001 82.0328c0,6.4735 -5.2671,11.737 -11.7404,11.7368z" />
              <path d="M147.46 158.08c-0.9353,0 -1.6937,-0.7583 -1.6937,-1.6931l0 -36.87 -118.137 0 0 36.8697c0,0.935 -0.7585,1.6936 -1.6937,1.6936 -0.9352,-0.0002 -1.6934,-0.7585 -1.6934,-1.6933l0.0002 -38.5635c0,-0.935 0.758,-1.6931 1.6932,-1.6931l121.524 -0.0004c0.9352,0 1.6933,0.7585 1.6933,1.6938l0.0001 38.5629c0,0.935 -0.7583,1.6936 -1.6934,1.6934z" />
              <path d="M43.2963 158.08c-0.9352,0 -1.6933,-0.7583 -1.6933,-1.6931l0.0001 -19.0892c0,-0.9351 0.758,-1.693 1.6932,-1.693 0.9353,-0.0001 1.6933,0.7581 1.6933,1.6933l0.0002 19.0886c0,0.935 -0.7583,1.6936 -1.6935,1.6934z" />
              <path d="M60.6572 158.08c-0.9352,0 -1.6933,-0.7583 -1.6933,-1.6931l0.0001 -38.5635c0,-0.935 0.758,-1.6931 1.6932,-1.6931 0.9349,-0.0004 1.693,0.7581 1.693,1.6934l0.0001 38.5629c0,0.935 -0.7582,1.6936 -1.6931,1.6934z" />
              <path d="M78.0178 158.08c-0.9351,0 -1.6934,-0.7583 -1.6934,-1.6931l0.0001 -19.0892c0,-0.9351 0.758,-1.693 1.6933,-1.693 0.935,-0.0001 1.6933,0.7581 1.6933,1.6933l0.0001 19.0886c0,0.935 -0.7586,1.6936 -1.6934,1.6934z" />
              <path d="M95.3781 158.08c-0.9349,0 -1.6931,-0.7583 -1.6931,-1.6931l0 -38.5635c0,-0.935 0.7581,-1.6931 1.693,-1.6931 0.9353,-0.0004 1.6933,0.7581 1.6933,1.6934l0 38.5629c0,0.935 -0.7581,1.6936 -1.6932,1.6934z" />
              <path d="M112.739 158.08c-0.9349,0 -1.6931,-0.7583 -1.6931,-1.6931l0.0002 -19.0892c0,-0.9351 0.7579,-1.693 1.6928,-1.693 0.9353,-0.0001 1.6937,0.7581 1.6937,1.6933l0 19.0886c0,0.935 -0.7585,1.6936 -1.6936,1.6934z" />
              <path d="M130.1 158.08c-0.9353,0 -1.6934,-0.7583 -1.6934,-1.6931l0.0001 -19.0892c0,-0.9351 0.758,-1.693 1.6932,-1.693 0.9353,-0.0001 1.6933,0.7581 1.6933,1.6933l0.0002 19.0886c0,0.935 -0.7583,1.6936 -1.6934,1.6934z" />
              <path d="M48.0769 138.991l-9.5609 0c-0.9349,0 -1.6935,-0.7578 -1.6935,-1.6931l0 -19.4746c0,-0.935 0.7585,-1.6931 1.6933,-1.6931 0.9352,-0.0004 1.6934,0.7581 1.6934,1.6934l0.0001 17.7809 6.1745 0 0 -17.7812c0,-0.935 0.7581,-1.6931 1.693,-1.6931 0.9353,-0.0004 1.6937,0.7581 1.6937,1.6934l0.0001 19.474c0,0.9354 -0.7586,1.6937 -1.6937,1.6934z" />
              <path d="M82.7979 138.991l-9.5609 0c-0.9352,0 -1.6934,-0.7578 -1.6934,-1.6931l0.0001 -19.4746c0,-0.935 0.758,-1.6931 1.6932,-1.6931 0.9353,-0.0004 1.6934,0.7581 1.6934,1.6934l0 17.7809 6.1747 0 0 -17.7812c0,-0.935 0.7577,-1.6931 1.6929,-1.6931 0.9352,-0.0004 1.6937,0.7581 1.6937,1.6934l0 19.474c0,0.9354 -0.7585,1.6937 -1.6937,1.6934z" />
              <path d="M117.519 138.991l-9.5607 0c-0.9352,0 -1.6937,-0.7578 -1.6937,-1.6931l0 -19.4746c0,-0.935 0.7585,-1.6931 1.6937,-1.6931 0.9352,-0.0004 1.6929,0.7581 1.6929,1.6934l0.0002 17.7809 6.1742 0 0 -17.7812c0,-0.935 0.7581,-1.6931 1.6933,-1.6931 0.9354,-0.0004 1.6937,0.7581 1.6937,1.6934l0.0001 19.474c0,0.9354 -0.7586,1.6937 -1.6937,1.6934z" />
              <path d="M134.88 138.991l-9.5609 0c-0.9352,0 -1.6935,-0.7578 -1.6935,-1.6931l0 -19.4746c0,-0.935 0.7581,-1.6931 1.6934,-1.6931 0.9353,-0.0004 1.6933,0.7581 1.6933,1.6934l0.0001 17.7809 6.1744 0 0 -17.7812c0,-0.935 0.7579,-1.6931 1.6931,-1.6931 0.9354,-0.0004 1.6934,0.7581 1.6934,1.6934l0 19.474c0,0.9354 -0.7581,1.6937 -1.6933,1.6934z" />
              <path d="M30.0147 71.2003c-1.3156,0 -2.3856,1.0701 -2.3856,2.3856l0 24.9186c0,1.3157 1.07,2.3856 2.3855,2.3856l53.1439 0c1.3156,0 2.3854,-1.0699 2.3854,-2.3854l0.0002 -24.9192c0,-1.3152 -1.0702,-2.3851 -2.3857,-2.3851l-53.1437 -0.0001zm53.1438 33.0764l-53.1438 0c-3.1827,0 -5.7723,-2.5893 -5.7723,-5.772l0.0002 -24.9192c0,-3.1825 2.5892,-5.7718 5.772,-5.7718l53.1439 -0.0003c3.1827,0 5.7721,2.5897 5.7721,5.7725l0 24.9186c0,3.1826 -2.5894,5.7723 -5.7721,5.7722z" />
              <path d="M39.7054 97.1309c-0.9352,0 -1.6933,-0.7581 -1.6933,-1.6929l0.0001 -18.7854c0,-0.935 0.758,-1.693 1.6932,-1.693 0.9349,-0.0001 1.6933,0.7581 1.6933,1.6933l0.0002 18.785c0,0.9346 -0.7586,1.693 -1.6935,1.693z" />
              <path d="M43.8962 92.8189l-8.3814 0c-0.9352,0 -1.6934,-0.7584 -1.6934,-1.6936 0.0002,-0.9349 0.7581,-1.6934 1.6933,-1.6934l8.3815 -0.0003c0.9351,0 1.6932,0.7588 1.6932,1.6937 0.0001,0.9352 -0.7581,1.6937 -1.6932,1.6936z" />
              <path d="M56.5865 97.1309c-0.935,0 -1.6933,-0.7581 -1.6933,-1.6929l0 -18.7854c0,-0.935 0.7581,-1.693 1.6933,-1.693 0.9352,-0.0001 1.6933,0.7581 1.6933,1.6933l0.0002 18.785c0,0.9346 -0.7583,1.693 -1.6935,1.693z" />
              <path d="M60.7773 87.7389l-8.3814 0c-0.9352,0 -1.6934,-0.7584 -1.6934,-1.6933 0.0001,-0.9352 0.7582,-1.6937 1.6934,-1.6937l8.3814 -0.0003c0.9352,0 1.6935,0.7588 1.6935,1.694 0.0002,0.9349 -0.7584,1.6934 -1.6935,1.6933z" />
              <path d="M73.468 97.1309c-0.9351,0 -1.6933,-0.7581 -1.6933,-1.6929l0 -18.7854c0,-0.935 0.7581,-1.693 1.6933,-1.693 0.935,-0.0001 1.6933,0.7581 1.6933,1.6933l0.0001 18.785c0,0.9346 -0.7585,1.693 -1.6934,1.693z" />
              <path d="M77.6588 82.6585l-8.3814 0c-0.9353,0 -1.6934,-0.758 -1.6934,-1.6932 0.0001,-0.9353 0.7581,-1.6937 1.6933,-1.6937l8.3815 0c0.9352,0 1.6932,0.7585 1.6932,1.6937 0,0.9352 -0.7582,1.6933 -1.6932,1.6932z" />
              <path d="M105.548 71.2003c-1.9108,0 -3.4659,1.5548 -3.4659,3.4657 0.0002,1.9108 1.5551,3.4654 3.4657,3.4654 1.9111,0 3.4657,-1.5544 3.4657,-3.4654 0.0002,-1.9111 -1.5547,-3.4656 -3.4655,-3.4657zm0 10.318c-3.7783,0 -6.8525,-3.074 -6.8525,-6.8523 0,-3.7784 3.0741,-6.8523 6.8523,-6.8523 3.7784,-0.0003 6.8524,3.0741 6.8524,6.8523 0,3.7781 -3.0741,6.8524 -6.8522,6.8523z" />
              <path d="M124.387 71.2003c-1.9109,0 -3.4657,1.5548 -3.4657,3.4657 0,1.9108 1.5547,3.4654 3.4657,3.4654 1.9108,0 3.4654,-1.5544 3.4654,-3.4654 0.0001,-1.9111 -1.5547,-3.4656 -3.4654,-3.4657zm0 10.318c-3.7782,0 -6.8523,-3.074 -6.8523,-6.8523 0.0001,-3.7784 3.0741,-6.8523 6.8523,-6.8523 3.7783,-0.0003 6.852,3.0741 6.852,6.8523 0.0001,3.7781 -3.0737,6.8524 -6.852,6.8523z" />
              <path d="M143.227 71.2003c-1.911,0 -3.4658,1.5548 -3.4658,3.4657 0.0001,1.9108 1.5547,3.4654 3.4657,3.4654 1.9107,0 3.4657,-1.5544 3.4657,-3.4654 0.0001,-1.9111 -1.555,-3.4656 -3.4656,-3.4657zm0 10.318c-3.7783,0 -6.8524,-3.074 -6.8524,-6.8523 0.0001,-3.7784 3.0741,-6.8523 6.8523,-6.8523 3.7783,-0.0003 6.8524,3.0741 6.8524,6.8523 0.0001,3.7781 -3.0741,6.8524 -6.8523,6.8523z" />
              <path d="M108.35 96.6821l-5.6053 0c-0.9352,0 -1.6933,-0.7583 -1.6933,-1.6932 0.0001,-0.9353 0.7581,-1.6937 1.6933,-1.6937l5.6053 0c0.9352,0 1.6937,0.7585 1.6937,1.6937 0,0.9348 -0.7585,1.6933 -1.6937,1.6932z" />
              <path d="M146.029 96.6821l-5.6052 0c-0.9351,0 -1.6932,-0.7583 -1.6932,-1.6932 0.0001,-0.9353 0.7581,-1.6937 1.693,-1.6937l5.6054 0c0.9353,0 1.6932,0.7585 1.6932,1.6937 0.0001,0.9348 -0.7581,1.6933 -1.6932,1.6932z" />
              <path d="M127.19 96.6821l-5.6053 0c-0.9352,0 -1.6934,-0.7583 -1.6934,-1.6932 0.0001,-0.9353 0.7581,-1.6937 1.6933,-1.6937l5.6054 0c0.9352,0 1.6932,0.7585 1.6932,1.6937 0,0.9348 -0.7581,1.6933 -1.6932,1.6932z" />
              <path d="M108.35 104.277l-5.6053 0c-0.9352,0 -1.6933,-0.7583 -1.6933,-1.6936 0.0001,-0.9349 0.7581,-1.6933 1.6933,-1.6933l5.6053 0c0.9352,0 1.6937,0.7585 1.6937,1.6933 0,0.9352 -0.7585,1.6937 -1.6937,1.6936z" />
              <path d="M146.029 104.277l-5.6052 0c-0.9351,0 -1.6932,-0.7583 -1.6932,-1.6936 0.0001,-0.9349 0.7581,-1.6933 1.693,-1.6933l5.6054 0c0.9353,0 1.6932,0.7585 1.6932,1.6933 0.0001,0.9352 -0.7581,1.6937 -1.6932,1.6936z" />
              <path d="M127.19 104.277l-5.6053 0c-0.9352,0 -1.6934,-0.7583 -1.6934,-1.6936 0.0001,-0.9349 0.7581,-1.6933 1.6933,-1.6933l5.6054 0c0.9352,0 1.6932,0.7585 1.6932,1.6933 0,0.9352 -0.7581,1.6937 -1.6932,1.6936z" />
              <path d="M108.35 89.0871l-5.6053 0c-0.9352,0 -1.6933,-0.7583 -1.6933,-1.6935 0.0001,-0.9354 0.7581,-1.6933 1.6933,-1.6933l5.6053 -0.0001c0.9352,0 1.6937,0.7582 1.6937,1.6934 0,0.9351 -0.7585,1.6937 -1.6937,1.6935z" />
              <path d="M146.029 89.0871l-5.6052 0c-0.9351,0 -1.6932,-0.7583 -1.6932,-1.6935 0.0001,-0.9354 0.7581,-1.6933 1.693,-1.6933l5.6054 -0.0001c0.9353,0 1.6932,0.7582 1.6932,1.6934 0.0001,0.9351 -0.7581,1.6937 -1.6932,1.6935z" />
              <path d="M127.19 89.0871l-5.6053 0c-0.9352,0 -1.6934,-0.7583 -1.6934,-1.6935 0.0001,-0.9354 0.7581,-1.6933 1.6933,-1.6933l5.6054 -0.0001c0.9352,0 1.6932,0.7582 1.6932,1.6934 0,0.9351 -0.7581,1.6937 -1.6932,1.6935z" />
              <path d="M108.456 55.9599c-0.9353,0 -1.6935,-0.758 -1.6935,-1.6932l0 -11.6438c0,-0.9338 -0.7595,-1.693 -1.6933,-1.693l-31.7517 0c-0.9339,0 -1.6934,0.7595 -1.6934,1.6934l0.0001 11.6432c0,0.9354 -0.7582,1.6935 -1.6935,1.6935 -0.935,-0.0001 -1.6933,-0.7581 -1.6933,-1.6933l0.0001 -11.6438c0,-2.8011 2.2785,-5.08 5.0799,-5.08l31.7518 -0.0004c2.8012,0 5.0803,2.2794 5.0803,5.0808l0.0001 11.6432c0,0.9354 -0.7585,1.6935 -1.6936,1.6934z" />
              <path d="M89.1918 40.9299c-0.8736,0 -1.6145,-0.6713 -1.6861,-1.5568 -0.5011,-6.197 1.9943,-12.3388 6.676,-16.4295 6.6228,-5.7873 12.4386,-4.9537 17.5701,-4.2189 4.735,0.6779 8.8244,1.2636 13.5682,-2.9767 0.6974,-0.6237 1.7677,-0.5635 2.3911,0.1337 0.6231,0.6971 0.5634,1.7681 -0.1341,2.3911 -5.9195,5.2918 -11.4374,4.5018 -16.3054,3.8043 -4.839,-0.6929 -9.4093,-1.3479 -14.8618,3.4167 -3.8769,3.3873 -5.9436,8.474 -5.5287,13.6059 0.0756,0.932 -0.6188,1.7491 -1.5512,1.8246 -0.0461,0.0032 -0.0924,0.0056 -0.1381,0.0056z" />
            </g>
          </g>
        </svg>

