        <svg
          xmlns="http://www.w3.org/2000/svg"
          viewBox="0 0 8.4666665 10.583333625"
          version="1.1"
          x="0px"
          y="0px"
          fill="#e7decb"
        >
          <g transform="translate(0,-288.53332)">
            <path
              d="m 2.7667321,293.44515 a 0.7548113,0.7548113 0 0 0 -0.7337954,0.75604 0.7548113,0.7548113 0 1 0 1.509448,0 0.7548113,0.7548113 0 0 0 -0.7756526,-0.75604 z m 0.00714,0.26561 a 0.49022527,0.49022527 0 0 1 0.503846,0.49043 0.49022527,0.49022527 0 1 1 -0.9802812,0 0.49022527,0.49022527 0 0 1 0.4764352,-0.49043 z"
              stroke="none"
            />
            <path
              d="m 7.2625851,289.06248 a 0.5291673,0.5291673 0 0 0 -0.1772443,0.031 l -3.015324,1.08159 a 0.26458336,0.26458336 0 0 1 -0.1788054,0 l -2.5104461,-0.90021 a 0.52918827,0.52918827 0 0 0 -0.3570817,0.99632 l 1.9879998,0.71316 a 0.26458336,0.26458336 0 0 1 0.1751806,0.24855 v 0.73639 a 0.26458336,0.26458336 0 0 1 -0.384466,0.23616 L 1.374574,291.4799 a 0.39687892,0.39687892 0 0 0 -0.3596746,0.70744 l 1.9941911,1.01339 a 1.5875,1.5875 0 0 1 0.8562711,1.61231 14.913233,14.913233 0 0 1 -0.1963473,1.18028 0.39688133,0.39688133 0 0 0 0.7772135,0.16124 15.706983,15.706983 0 0 0 0.3281363,-3.19207 v -1.7296 a 0.26458336,0.26458336 0 0 1 0.1751806,-0.24855 l 2.4933804,-0.89453 a 0.5291673,0.5291673 0 0 0 -0.18034,-1.02733 z m 0,0.26459 a 0.26458601,0.26458601 0 0 1 0.090435,0.51366 l -2.4933804,0.89453 a 0.52916667,0.52916667 0 0 0 -0.3503613,0.49763 v 1.7296 a 15.4424,15.4424 0 0 1 -0.3224745,3.13831 0.13229863,0.13229863 0 0 1 -0.2588948,-0.0537 15.177817,15.177817 0 0 0 0.1994694,-1.20147 1.8520833,1.8520833 0 0 0 -0.998908,-1.88103 l -1.9941911,-1.01285 a 0.13243346,0.13243346 0 0 1 0.1199092,-0.23617 l 1.4277975,0.72554 a 0.52916667,0.52916667 0 0 0 0.7689586,-0.4718 v -0.73639 A 0.52916667,0.52916667 0 0 0 3.1000542,290.73526 L 1.1125836,290.0221 a 0.26463879,0.26463879 0 0 1 0.1788054,-0.49816 l 2.509917,0.90022 a 0.52916667,0.52916667 0 0 0 0.3570816,0 l 3.0158532,-1.08159 a 0.26458601,0.26458601 0 0 1 0.088344,-0.0156 z"
              stroke="none"
            />
            <path
              d="m 7.5762487,291.46905 -1.2143846,0.35449 v 0.89866 a 0.36849037,0.36849037 0 1 0 0.2645833,0.35348 v -1.0537 l 0.6852179,-0.19997 v 0.54983 a 0.36849037,0.36849037 0 1 0 0.2645834,0.35346 z m -0.3715544,1.1524 a 0.10391,0.10391 0 0 1 0.106971,0.10385 0.10391,0.10391 0 1 1 -0.2077243,0 0.10391,0.10391 0 0 1 0.1007533,-0.10385 z m -0.9492985,0.34933 a 0.10390744,0.10390744 0 0 1 0.1064683,0.1049 0.10390744,0.10390744 0 1 1 -0.2077508,0 0.10390744,0.10390744 0 0 1 0.1012825,-0.1049 z"
              stroke="none"
            />
          </g>
        </svg>

