<svg style="fill: #455391" xmlns="http://www.w3.org/2000/svg" version="1.1" viewBox="-5.0 -10.0 110.0 135.0">
 <path d="m86.188 45.734c-1.2695 0-2.2969-1.0273-2.2969-2.2969s1.0273-2.2969 2.2969-2.2969h2.9805c2.707 0 5.1641 1.1055 6.9453 2.8867 1.7773 1.7773 2.8867 4.2383 2.8867 6.9453v26.203c0 2.707-1.1055 5.1641-2.8867 6.9453-1.7773 1.7773-4.2383 2.8867-6.9453 2.8867h-78.344c-2.707 0-5.1641-1.1055-6.9453-2.8867-1.7773-1.7773-2.8867-4.2383-2.8867-6.9453v-26.203c0-2.707 1.1055-5.1641 2.8867-6.9453 1.7773-1.7773 4.2383-2.8867 6.9453-2.8867h2.9805c1.2695 0 2.2969 1.0273 2.2969 2.2969s-1.0273 2.2969-2.2969 2.2969h-2.9805c-1.4375 0-2.7461 0.58984-3.6953 1.5391-0.94922 0.94922-1.5391 2.2578-1.5391 3.6953v26.203c0 1.4375 0.58984 2.7461 1.5391 3.6953 0.94922 0.94922 2.2578 1.5391 3.6953 1.5391h78.344c1.4375 0 2.7461-0.58984 3.6953-1.5391 0.94922-0.94922 1.5391-2.2578 1.5391-3.6953v-26.203c0-1.4375-0.58984-2.7461-1.5391-3.6953-0.94922-0.94922-2.2578-1.5391-3.6953-1.5391zm-36.188-2.2266c2.1289 0 4.0508-0.85937 5.4453-2.2578 1.3906-1.3906 2.2539-3.3164 2.2539-5.4414 0-2.1289-0.85938-4.0508-2.2539-5.4453-1.3945-1.3906-3.3164-2.2539-5.4453-2.2539s-4.0508 0.85938-5.4453 2.2539c-1.3906 1.3945-2.2539 3.3164-2.2539 5.4453s0.85938 4.0508 2.2539 5.4414c1.3945 1.3945 3.3164 2.2578 5.4453 2.2578zm8.6914 0.99219c-0.14844 0.14844-0.30078 0.28906-0.45312 0.43359 0.75 0.27734 1.4805 0.58984 2.1797 0.93359 2.2188 1.0938 4.168 2.5312 5.7422 4.2266 2.5781-3.3984 4.1055-7.6367 4.1055-12.234 0-5.5938-2.2695-10.66-5.9336-14.332-3.668-3.668-8.7344-5.9336-14.332-5.9336-5.5938 0-10.66 2.2695-14.332 5.9336-3.668 3.668-5.9336 8.7344-5.9336 14.332 0 4.6367 1.5586 8.918 4.1836 12.332 1.5742-1.7266 3.5312-3.1875 5.7617-4.2969 0.68359-0.33984 1.3984-0.64844 2.1328-0.92188-0.17188-0.15234-0.33594-0.30859-0.49609-0.47266-2.2227-2.2227-3.6016-5.2969-3.6016-8.6914 0-3.3945 1.3789-6.4688 3.6016-8.6914 2.2227-2.2227 5.2969-3.6016 8.6914-3.6016 3.3945 0 6.4688 1.3789 8.6914 3.6016 2.2227 2.2227 3.6016 5.2969 3.6016 8.6914 0 3.3945-1.3789 6.4688-3.6016 8.6914zm4.2969 8.918c-1.2227-1.3789-2.7852-2.5508-4.5977-3.4453-2.4102-1.1875-5.2539-1.875-8.3086-1.875-3.0703 0-5.9336 0.69531-8.3594 1.9023-1.8242 0.91016-3.3945 2.1016-4.6172 3.4922 3.5039 2.8906 7.9961 4.6289 12.895 4.6289 4.9414 0 9.4688-1.7695 12.988-4.707zm-12.988-40.418c6.8633 0 13.082 2.7852 17.578 7.2812s7.2812 10.715 7.2812 17.578-2.7852 13.082-7.2812 17.578c-4.5 4.4961-10.715 7.2812-17.578 7.2812s-13.082-2.7852-17.578-7.2812c-4.4961-4.5-7.2812-10.715-7.2812-17.578s2.7852-13.082 7.2812-17.578c4.5-4.5 10.715-7.2812 17.578-7.2812zm-34.172 61.523c-1.2695 0-2.2969-1.0273-2.2969-2.2969 0-1.2695 1.0273-2.2969 2.2969-2.2969h68.344c1.2695 0 2.2969 1.0273 2.2969 2.2969 0 1.2695-1.0273 2.2969-2.2969 2.2969z"/>
</svg>
