        <svg
          xmlns="http://www.w3.org/2000/svg"
          version="1.1"
          x="0px"
          y="0px"
          viewBox="0 0 64 80"
          enableBackground="new 0 0 64 64"
          fill="#e7decb"
        >
          <g>
            <path d="M51.477,9.135c-2.667,0-4.836,2.169-4.836,4.836v4.315c-0.797-0.579-1.777-0.921-2.836-0.921   c-1.13,0-2.171,0.39-2.995,1.041c-0.545-2.073-2.438-3.607-4.681-3.607c-1.059,0-2.039,0.342-2.836,0.921V5.836   C33.293,3.169,31.124,1,28.457,1S23.62,3.169,23.62,5.836v19.038l-5.711-5.112c-3.442-3.082-7.103-2.673-8.942-0.674   c-1.83,1.99-2.059,5.777,1.764,9.386c0.059,0.057,0.152,0.139,0.273,0.246c3.549,3.127,5.349,6.298,5.349,9.425   c0,8.224,3.247,11.958,9.253,15.752V62c0,0.553,0.447,1,1,1h23.602c0.553,0,1-0.447,1-1v-9.581   c4.614-3.821,5.105-7.104,5.105-13.49V13.971C56.313,11.304,54.144,9.135,51.477,9.135z M43.805,19.365   c1.563,0,2.836,1.272,2.836,2.836v5.763c0,1.564-1.272,2.836-2.836,2.836c-1.564,0-2.837-1.272-2.837-2.836v-5.763   C40.968,20.637,42.24,19.365,43.805,19.365z M36.129,16.798c1.565,0,2.839,1.272,2.839,2.836v9.387c0,1.56-1.27,2.829-2.829,2.829   c-1.558,0-2.825-1.269-2.825-2.829v-9.387c0-0.024-0.012-0.044-0.014-0.068C33.337,18.035,34.589,16.798,36.129,16.798z M28.457,3   c1.563,0,2.836,1.272,2.836,2.836l0.021,22.286c-1.722-0.779-3.632-1.381-5.693-1.814V5.836C25.62,4.272,26.893,3,28.457,3z    M54.313,38.929c0,6.144-0.407,8.789-4.729,12.231c-0.238,0.189-0.377,0.478-0.377,0.782V61H27.605v-7.658   c0-0.347-0.18-0.669-0.475-0.851c-5.947-3.676-8.778-6.76-8.778-14.347c0-3.727-2.027-7.403-6.026-10.926   c-0.098-0.086-0.173-0.151-0.222-0.198c-2.837-2.679-2.852-5.289-1.665-6.58c1.139-1.236,3.546-1.51,6.136,0.811l7.378,6.604   c0.138,0.123,0.305,0.198,0.478,0.232c0.004,0,0.005,0.005,0.009,0.006c2.679,0.491,5.063,1.296,7.12,2.374   c0.609,1.924,2.374,3.331,4.485,3.372c2.235,2.428,3.057,5.043,3.057,6.724c0,0.553,0.447,1,1,1s1-0.447,1-1   c0-2.35-1.051-4.961-2.849-7.223c0.892-0.438,1.619-1.14,2.098-2.007c0.879,0.9,2.1,1.465,3.454,1.465   c2.667,0,4.836-2.169,4.836-4.836V13.971c0-1.564,1.272-2.836,2.836-2.836s2.836,1.272,2.836,2.836V38.929z" />
          </g>
        </svg>

