<svg fill="#455391" xmlns="http://www.w3.org/2000/svg" data-name="Layer 1" viewBox="0 0 100 125" x="0px" y="0px"><title>Night Club</title><path d="M52.812,19.2V13.438a2.812,2.812,0,1,0-5.624,0V19.2a33.75,33.75,0,1,0,5.624,0ZM75.761,64.062H68.585a56.207,56.207,0,0,0,1.022-8.437h8.376A27.888,27.888,0,0,1,75.761,64.062Zm-51.522-22.5h7.176A56.236,56.236,0,0,0,30.393,50H22.017A27.9,27.9,0,0,1,24.239,41.562Zm28.573-5.624V25.281c3.349,1.422,6.291,5.332,8.33,10.657Zm10.021,5.624A50.3,50.3,0,0,1,63.989,50H52.812V41.562ZM47.188,25.281V35.938h-8.33C40.9,30.613,43.839,26.7,47.188,25.281Zm0,16.281V50H36.011a50.3,50.3,0,0,1,1.156-8.438ZM22.017,55.625h8.376a56.207,56.207,0,0,0,1.022,8.437H24.239A27.888,27.888,0,0,1,22.017,55.625Zm13.994,0H47.188v8.437H37.167A50.27,50.27,0,0,1,36.011,55.625ZM47.188,69.688V80.344c-3.349-1.422-6.291-5.332-8.33-10.656Zm5.624,10.656V69.688h8.33C59.1,75.012,56.161,78.922,52.812,80.344Zm0-16.282V55.625H63.989a50.27,50.27,0,0,1-1.156,8.437ZM69.607,50a56.236,56.236,0,0,0-1.022-8.438h7.176A27.9,27.9,0,0,1,77.983,50Zm2.84-14.062H67.113a36.576,36.576,0,0,0-3.547-7.747A28.292,28.292,0,0,1,72.447,35.938ZM36.434,28.191a36.576,36.576,0,0,0-3.547,7.747H27.553A28.292,28.292,0,0,1,36.434,28.191Zm-8.881,41.5h5.334a36.59,36.59,0,0,0,3.547,7.746A28.3,28.3,0,0,1,27.553,69.688Zm36.013,7.746a36.59,36.59,0,0,0,3.547-7.746h5.334A28.3,28.3,0,0,1,63.566,77.434Z"/><path d="M17.656,23.281v1.407a2.813,2.813,0,0,0,5.625,0V23.281h1.407a2.813,2.813,0,0,0,0-5.625H23.281V16.25a2.813,2.813,0,0,0-5.625,0v1.406H16.25a2.813,2.813,0,0,0,0,5.625Z"/><path d="M86.562,79.531H85.156V78.125a2.813,2.813,0,1,0-5.625,0v1.406H78.125a2.813,2.813,0,1,0,0,5.625h1.406v1.406a2.813,2.813,0,1,0,5.625,0V85.156h1.406a2.813,2.813,0,1,0,0-5.625Z"/><circle cx="78.125" cy="21.875" r="2.813"/><circle cx="19.063" cy="80.938" r="2.813"/></svg>
