<svg stroke-width="6" stroke="#455391" fill="transparent" xmlns="http://www.w3.org/2000/svg" data-name="Layer 1" viewBox="0 0 100 125" x="0px" y="0px"><title>3Artboard 73</title><path d="M96.6,15.22C102,30.08,91.11,44,77,44a20.64,20.64,0,0,1-5.28-.69,2.59,2.59,0,0,1-.7-4.74A18,18,0,0,0,71,7.42a2.59,2.59,0,0,1,.64-4.72,21.54,21.54,0,0,1,13.78,1A19.79,19.79,0,0,1,96.6,15.22ZM54.52,20h-45A7.47,7.47,0,0,0,3.15,31.43L26,68V86H14a6,6,0,1,0,0,12H50a6,6,0,0,0,0-12H38V68L60.86,31.43A7.47,7.47,0,0,0,54.52,20Z"/></svg>
