        <svg
          xmlns="http://www.w3.org/2000/svg"
          viewBox="0 0 8 8"
          version="1.1"
          x="0px"
          y="0px"
          fill="#e7decb"
        >
          <g transform="translate(0,-288.53332)">
            <path
              d="m 4.1340842,295.02478 a 0.32167539,0.32167539 0 0 0 0.5389502,0 0.47816352,0.47816352 0 0 0 0,-0.52224 0.32167539,0.32167539 0 0 0 -0.5389502,0 0.47816352,0.47816352 0 0 0 0,0.52224 z"
              stroke="none"
            />
            <path
              d="m 4.7332393,291.73916 a 1.560089,1.560089 0 0 0 -0.7885906,0.23204 2.0044229,2.0044229 0 0 0 -1.6996304,2.03759 0.13229168,0.13229168 0 0 0 -0.035137,0.0315 5.1211644,5.1211644 0 0 1 -1.26039557,1.16737 0.13237179,0.13237179 0 0 0 0.14470057,0.2217 5.3857478,5.3857478 0 0 0 1.1926887,-1.06143 1.1535532,1.1535532 0 0 1 -0.7870295,1.39266 0.13243099,0.13243099 0 0 0 0.075962,0.25373 1.4181365,1.4181365 0 0 0 0.9766829,-1.67431 1.7398395,1.7398395 0 0 1 0.9508595,-1.95955 1.560089,1.560089 0 0 0 -0.2320395,0.46611 8.0973986,8.0973986 0 0 0 -0.2981855,3.24218 0.13231826,0.13231826 0 0 0 0.2630488,-0.0289 7.832815,7.832815 0 0 1 -0.047016,-0.73227 5.3241591,5.3241591 0 0 0 0.7079456,0.55865 0.66145834,0.66145834 0 0 0 0.7286361,0 5.3241591,5.3241591 0 0 0 1.0226939,-0.88006 27.726992,27.726992 0 0 1 -0.028416,0.61547 0.13229168,0.13229168 0 0 0 0.2640542,0.0154 27.991575,27.991575 0 0 0 0.017463,-0.34105 1.8095684,1.8095684 0 0 0 0.4377002,0.45217 0.13247006,0.13247006 0 0 0 0.1555485,-0.21447 1.544985,1.544985 0 0 1 -0.5730875,-0.80563 27.991575,27.991575 0 0 0 -0.014552,-1.84226 0.96793294,0.96793294 0 0 0 -0.9281054,-0.92761 0.13240614,0.13240614 0 0 0 -0.010848,0.26459 0.70334955,0.70334955 0 0 1 0.67437,0.67386 27.726992,27.726992 0 0 1 0.0082,0.22429 1.6683212,1.6683212 0 0 0 -0.5668698,-0.0336 0.38587225,0.38587225 0 0 0 -0.2599531,0.1447 0.76531896,0.76531896 0 0 0 -0.5322623,0 0.38587225,0.38587225 0 0 0 -0.2599267,-0.1447 1.6683212,1.6683212 0 0 0 -0.5648325,0.0331 7.832815,7.832815 0 0 1 0.056859,-0.19688 1.2955056,1.2955056 0 0 1 1.2143845,-0.91985 0.13231812,0.13231812 0 0 0 -0.00529,-0.26458 z m -0.162269,1.70998 a 0.50073558,0.50073558 0 0 1 0.1710532,0.0346 0.38587225,0.38587225 0 0 0 0.032041,0.14158 0.82749282,0.82749282 0 0 0 0.8914077,0.48578 27.726992,27.726992 0 0 1 -0.00476,0.4718 5.0595758,5.0595758 0 0 1 -1.1802798,1.08262 0.39687498,0.39687498 0 0 1 -0.437171,0 5.0595758,5.0595758 0 0 1 -0.8511117,-0.70643 7.832815,7.832815 0 0 1 0.079058,-0.89916 0.82749282,0.82749282 0 0 0 1.0717742,-0.43461 0.38587225,0.38587225 0 0 0 0.032041,-0.14158 0.50073558,0.50073558 0 0 1 0.1958446,-0.0346 z"
              stroke="none"
            />
            <path
              d="m 3.0706844,290.58352 v -1.25602 l -1.21462,0.35415 v 0.89855 a 0.36849037,0.36849037 0 1 0 0.26458,0.35353 v -1.05362 l 0.68545,-0.19986 v 0.54973 a 0.36849037,0.36849037 0 1 0 0.26459,0.35354 z"
              stroke="none"
            />
            <path
              d="m 2.1319944,292.53183 a 2.8477864,2.8477864 0 0 1 2.51856,-1.27645 0.13229241,0.13229241 0 0 1 -0.0131,0.26426 2.583203,2.583203 0 0 0 -2.2845699,1.15785 16.960243,16.960243 0 0 0 -1.35243,2.47726 0.13229249,0.13229249 0 0 1 -0.24196992,-0.10702 17.224826,17.224826 0 0 1 1.37351992,-2.5159 z"
              stroke="none"
            />
            <path
              d="m 6.6924942,293.59502 a 34.747168,34.747168 0 0 1 -0.1822399,-1.04124 1.0583333,1.0583333 0 0 0 -0.18156,-0.44524 1.3298614,1.3298614 0 0 0 -1.1128198,-0.5608 0.13229902,0.13229902 0 0 1 -0.006,-0.26453 1.5944447,1.5944447 0 0 1 1.3342202,0.67239 1.3229167,1.3229167 0 0 1 0.2269599,0.55653 34.482585,34.482585 0 0 0 0.1808501,1.03332 1.2943412,1.2943412 0 0 0 0.6940299,0.9159 0.1322971,0.1322971 0 0 1 -0.1180301,0.23681 1.5589245,1.5589245 0 0 1 -0.8359,-1.10314 z"
              stroke="none"
            />
            <path
              d="m 5.8698245,292.28695 a 11.263801,11.263801 0 0 1 0.3540397,1.70121 1.7446458,1.7446458 0 0 0 1.2791602,1.46264 0.13229388,0.13229388 0 0 0 0.0684,-0.25558 1.4800624,1.4800624 0 0 1 -1.0851701,-1.24082 11.528384,11.528384 0 0 0 -0.3623601,-1.74118 0.79375,0.79375 0 0 0 -0.8949499,-0.56141 0.13229399,0.13229399 0 0 0 0.0442,0.26087 0.52916664,0.52916664 0 0 1 0.5966302,0.37427 z"
              stroke="none"
            />
          </g>
        </svg>

