<svg xmlns="http://www.w3.org/2000/svg" xmlns:xlink="http://www.w3.org/1999/xlink" version="1.1" x="0px" y="0px" viewBox="0 12 64 40" style="enable-background:new 0 0 64 64; fill: #455391" xml:space="preserve"><g><path d="M55.5773926,27.3166504H44.5142822c0.1143188-0.6837158,0.1881104-1.3810425,0.1881104-2.0966797   c0-7.0039063-5.6982422-12.7016602-12.7021484-12.7016602S19.298584,18.2160645,19.298584,25.2199707   c0,0.7156372,0.0737915,1.4129639,0.1881104,2.0966797H8.423584c-1.6801758,0-3.046875,1.3666992-3.046875,3.046875v18.0712891   c0,1.6801758,1.3666992,3.046875,3.046875,3.046875h47.1538086c1.6796875,0,3.0458984-1.3666992,3.0458984-3.046875V30.3635254   C58.623291,28.6833496,57.2570801,27.3166504,55.5773926,27.3166504z M32.0002441,14.5183105   c5.9013672,0,10.7021484,4.8007813,10.7021484,10.7016602c0,2.5015259-0.8692627,4.8001099-2.3129272,6.6243286   c-0.4298706-0.7633667-0.9545288-1.4780273-1.5942993-2.1243286c-0.9439087-0.9389648-2.0438843-1.6605835-3.2382813-2.145813   c1.2252197-1.022522,2.0068359-2.5595093,2.0068359-4.2765503c0-3.0712891-2.4980469-5.5698242-5.5693359-5.5698242   s-5.5698242,2.4985352-5.5698242,5.5698242c0,1.6911621,0.7602539,3.2058105,1.9538574,4.2281494   c-2.0383911,0.7794189-3.7807007,2.2055054-4.9116211,4.1251831c-1.3545532-1.7927856-2.1682129-4.0159912-2.1682129-6.4309692   C21.298584,19.3190918,26.0993652,14.5183105,32.0002441,14.5183105z M31.8406372,28.8596191   c0.0515747,0.0014038,0.1018677,0.0078125,0.1537476,0.0078125c0.0174561,0,0.0343628-0.0024414,0.0518188-0.0026245   c2.0081787,0.0423584,3.8990479,0.8414307,5.3329468,2.2677612c0.6572876,0.6640625,1.1708374,1.414917,1.5478516,2.2304688   c-1.8686523,1.5918579-4.2852173,2.5585938-6.9267578,2.5585938c-2.7177734,0-5.194458-1.0267334-7.0839844-2.7019043   C26.211792,30.5704956,28.8564453,28.8746338,31.8406372,28.8596191z M28.4245605,23.2976074   c0-1.9682617,1.6015625-3.5698242,3.5698242-3.5698242c1.9677734,0,3.5693359,1.6015625,3.5693359,3.5698242   c0,1.9564819-1.583374,3.5473633-3.5349121,3.5663452c-0.0446777-0.0006714-0.088501-0.0064697-0.1332397-0.0065308   C29.973877,26.8036499,28.4245605,25.2320557,28.4245605,23.2976074z M56.623291,48.4348145   c0,0.5771484-0.46875,1.046875-1.0458984,1.046875H8.423584c-0.5771484,0-1.046875-0.4697266-1.046875-1.046875V30.3635254   c0-0.5771484,0.4697266-1.046875,1.046875-1.046875h11.5656738c1.7095947,4.9971924,6.4417725,8.6049805,12.0109863,8.6049805   s10.3016357-3.6077881,12.0114136-8.6049805h11.5657349c0.5771484,0,1.0458984,0.4697266,1.0458984,1.046875V48.4348145z"/><path d="M43.4309082,39.951416H20.5695801c-0.5522461,0-1,0.4477539-1,1v4.9594727c0,0.5522461,0.4477539,1,1,1h22.8613281   c0.5527344,0,1-0.4477539,1-1V40.951416C44.4309082,40.3991699,43.9836426,39.951416,43.4309082,39.951416z M42.4309082,44.9108887   H21.5695801V41.951416h20.8613281V44.9108887z"/></g></svg>
