        <svg
          xmlns="http://www.w3.org/2000/svg"
          viewBox="0 0 100 100"
          x="0px"
          y="0px"
          fill="#e7decb"
        >
          <path d="M73.45,49.57v-6.4c0-4.43-3.61-8.04-8.04-8.04h-.75V14.39c0-3.25-2.64-5.89-5.89-5.89s-5.89,2.64-5.89,5.89v15.67c-.99-.56-2.14-.83-3.3-.75-1.84,.13-3.43,1.14-4.42,2.62-1.18-1.07-2.75-1.62-4.36-1.51-.9,.06-1.73,.34-2.47,.77v-13.1c0-3.25-2.64-5.89-5.89-5.89s-5.89,2.64-5.89,5.89V51.93c0,9.76,2.96,17.08,7.96,19.89v2.88h-1.29c-.83,0-1.5,.67-1.5,1.5v13.84c0,.83,.67,1.5,1.5,1.5h30.59c.83,0,1.5-.67,1.5-1.5v-13.84c0-.83-.67-1.5-1.5-1.5h-1.4v-2.86c6.84-4.27,11.05-11.82,11.05-19.91v-2.36Zm-13.29,20.12c-.47,.27-.75,.76-.75,1.3v3.71h-21.9v-3.8c0-.6-.36-1.14-.91-1.38-4.35-1.88-7.06-8.62-7.06-17.58V18.09c0-1.59,1.3-2.89,2.89-2.89s2.89,1.3,2.89,2.89v24.87c-.59,.24-1.11,.47-1.53,.67l-.09,.04c-.73,.3-1.11,1.11-.85,1.86,.21,.63,.79,1.02,1.42,1.02,.16,0,.32-.03,.48-.08,.04-.01,.15-.06,.34-.14,.19-.09,.41-.19,.64-.29,.29,.76,.74,1.47,1.33,2.06,1.1,1.12,2.61,1.73,4.18,1.73,.36,0,.71-.03,1.07-.1,1.58-.28,2.9-1.23,3.76-2.53,1.08,.98,2.49,1.52,3.95,1.52,.36,0,.72-.03,1.07-.1,1.43-.26,2.65-1.05,3.51-2.16,.5,.16,1.02,.28,1.56,.35-3.49,2.25-7.12,6.11-7.64,12.5-.07,.83,.55,1.55,1.37,1.62,.04,0,.08,0,.12,0,.77,0,1.43-.59,1.49-1.38,.8-9.9,10.57-12.38,11.84-12.66h.82c.83,0,1.5-.67,1.5-1.5s-.67-1.5-1.5-1.5h-6.85c-3.22,0-5.83-2.62-5.88-5.78h14c2.78,0,5.04,2.26,5.04,5.04v8.77c0,7.31-3.94,14.11-10.29,17.76Zm-10.38-37.38c.07,0,.13,0,.2,0,.77,0,1.51,.3,2.06,.85,.53,.52,.82,1.22,.83,1.98h-1.46c-1.63,0-2.95,1.32-2.95,2.95,0,2.82,1.33,5.32,3.39,6.94-.37,.34-.82,.57-1.31,.66-.98,.18-1.92-.11-2.59-.8-.55-.55-.85-1.27-.85-2.05v-7.43c0-1.61,1.2-3,2.68-3.1Zm8.99-20.81c1.59,0,2.89,1.3,2.89,2.89v20.74h-5.78V14.39c0-1.59,1.3-2.89,2.89-2.89Zm-17.57,21.9c.77,0,1.51,.3,2.06,.85,.54,.53,.84,1.26,.84,2.03v7.45c0,1.5-1.01,2.81-2.34,3.04-.98,.18-1.92-.11-2.59-.8-.55-.54-.85-1.27-.85-2.05v-7.43c0-1.61,1.2-3,2.68-3.1,.07,0,.13,0,.2,0Z" />
        </svg>

