        <svg
          xmlns="http://www.w3.org/2000/svg"
          version="1.1"
          x="0px"
          y="0px"
          viewBox="0 0 100 100"
          enableBackground="new 0 0 100 100"
          fill="#e7decb"
        >
          <g display="none">
            <rect
              x="-529.245"
              y="-514.243"
              display="inline"
              width="1329.133"
              height="1263.126"
            />
          </g>
          <g>
            <circle fill="none" cx="50" cy="24.659" r="6.441" />
            <path
              fill="none"
              d="M79.079,74.358c-1.604,0-2.909,1.305-2.909,2.91s1.305,2.909,2.909,2.909s2.91-1.305,2.91-2.909   S80.683,74.358,79.079,74.358z"
            />
            <path
              fill="none"
              d="M79.079,66.508c-5.933,0-10.759,4.827-10.759,10.759s4.827,10.759,10.759,10.759S89.838,83.2,89.838,77.267   S85.012,66.508,79.079,66.508z M79.079,82.52c-2.897,0-5.253-2.356-5.253-5.253s2.356-5.253,5.253-5.253s5.253,2.356,5.253,5.253   S81.976,82.52,79.079,82.52z"
            />
            <path
              fill="none"
              d="M92.656,61.882H65.294v30.771h27.362V61.882z M79.079,90.37c-7.225,0-13.103-5.878-13.103-13.103   s5.878-13.103,13.103-13.103s13.103,5.878,13.103,13.103S86.304,90.37,79.079,90.37z"
            />
            <path
              fill="none"
              d="M34.706,61.882H7.344v30.771h27.362V61.882z M20.922,90.37c-7.225,0-13.103-5.878-13.103-13.103   s5.878-13.103,13.103-13.103c7.225,0,13.103,5.878,13.103,13.103S28.146,90.37,20.922,90.37z"
            />
            <path
              fill="none"
              d="M20.922,74.358c-1.604,0-2.91,1.305-2.91,2.91s1.305,2.909,2.91,2.909c1.604,0,2.909-1.305,2.909-2.909   S22.526,74.358,20.922,74.358z"
            />
            <path
              fill="none"
              d="M20.922,66.508c-5.933,0-10.759,4.827-10.759,10.759s4.826,10.759,10.759,10.759   c5.933,0,10.759-4.827,10.759-10.759S26.854,66.508,20.922,66.508z M20.922,82.52c-2.897,0-5.253-2.356-5.253-5.253   s2.356-5.253,5.253-5.253s5.253,2.356,5.253,5.253S23.818,82.52,20.922,82.52z"
            />
            <path
              fill="none"
              d="M62.951,61.882H37.049v30.771h25.901V61.882z M42.955,86.507c0,0.647-0.525,1.172-1.172,1.172   c-0.647,0-1.172-0.525-1.172-1.172V68.369c0-0.647,0.525-1.172,1.172-1.172c0.647,0,1.172,0.525,1.172,1.172V86.507z    M51.172,82.459v4.048c0,0.647-0.525,1.172-1.172,1.172s-1.172-0.525-1.172-1.172v-4.048v-14.09c0-0.647,0.525-1.172,1.172-1.172   s1.172,0.525,1.172,1.172V82.459z M59.389,86.507c0,0.647-0.525,1.172-1.172,1.172c-0.647,0-1.172-0.525-1.172-1.172V68.369   c0-0.647,0.525-1.172,1.172-1.172c0.647,0,1.172,0.525,1.172,1.172V86.507z"
            />
            <path d="M41.216,24.659c0,4.844,3.941,8.784,8.784,8.784c4.844,0,8.784-3.941,8.784-8.784c0-4.844-3.941-8.784-8.784-8.784   C45.156,15.874,41.216,19.815,41.216,24.659z M56.441,24.659c0,3.557-2.884,6.441-6.441,6.441c-3.557,0-6.44-2.884-6.44-6.441   c0-3.557,2.884-6.441,6.44-6.441C53.557,18.218,56.441,21.102,56.441,24.659z" />
            <path d="M59.884,56.111h1.407c0.259,0,0.468-0.21,0.468-0.468v-9.096c0.604-0.196,1.176-0.482,1.699-0.855l9.857-7.028   c1.567-1.117,2.536-2.866,2.657-4.797c0.121-1.925-0.628-3.785-2.056-5.103c-1.705-1.573-4.214-2.096-6.613-1.217   c-0.539,0.197-1.042,0.485-1.509,0.818l-9.739,6.944c-0.244,0.174-0.474,0.366-0.69,0.574c-0.998-0.35-2.049-0.531-3.115-0.531   h-4.501c-1.066,0-2.117,0.181-3.115,0.531c-0.216-0.208-0.447-0.401-0.69-0.574l-9.738-6.943c-0.467-0.333-0.97-0.621-1.509-0.819   c-2.399-0.879-4.908-0.356-6.613,1.217c-1.428,1.318-2.178,3.177-2.057,5.103c0.122,1.931,1.09,3.679,2.657,4.797l9.857,7.028   c0.523,0.373,1.095,0.66,1.699,0.855v9.096c0,0.259,0.21,0.468,0.468,0.468h1.407c0.259,0,0.468-0.21,0.468-0.468V44.862   c0-0.124,0.012-0.245,0.019-0.368c-0.129,0.012-0.259,0.018-0.389,0.018c-0.803,0-1.612-0.229-2.312-0.728l-9.857-7.028   c-2.033-1.45-2.314-4.476-0.372-6.268c0.744-0.687,1.7-1.021,2.668-1.021c0.871,0,1.751,0.271,2.493,0.8l9.749,6.951   c0.597,0.426,1.027,0.994,1.31,1.62c1.116-0.718,2.438-1.141,3.856-1.141h4.501c1.418,0,2.74,0.423,3.856,1.141   c0.283-0.626,0.713-1.194,1.31-1.62l9.749-6.951c0.742-0.529,1.622-0.8,2.493-0.8c0.967,0,1.924,0.334,2.668,1.021   c1.942,1.792,1.661,4.818-0.372,6.268l-9.857,7.028c-0.7,0.499-1.509,0.728-2.312,0.728c-0.13,0-0.26-0.006-0.389-0.018   c0.006,0.123,0.019,0.244,0.019,0.368v10.781C59.416,55.901,59.626,56.111,59.884,56.111z" />
            <path d="M6.172,94.996h29.706h57.951c0.647,0,1.172-0.525,1.172-1.172V60.71c0-0.647-0.525-1.172-1.172-1.172H75.121H35.878h-3.839   H6.172C5.525,59.538,5,60.063,5,60.71v33.115C5,94.472,5.525,94.996,6.172,94.996z M65.294,61.882h27.362v30.771H65.294V61.882z    M37.049,61.882h25.901v30.771H37.049V61.882z M7.344,61.882h27.362v30.771H7.344V61.882z" />
            <path d="M20.922,64.164c-7.225,0-13.103,5.878-13.103,13.103S13.697,90.37,20.922,90.37c7.225,0,13.103-5.878,13.103-13.103   S28.146,64.164,20.922,64.164z M20.922,88.026c-5.933,0-10.759-4.827-10.759-10.759s4.826-10.759,10.759-10.759   c5.933,0,10.759,4.827,10.759,10.759S26.854,88.026,20.922,88.026z" />
            <path d="M20.922,72.014c-2.897,0-5.253,2.356-5.253,5.253s2.356,5.253,5.253,5.253s5.253-2.356,5.253-5.253   S23.818,72.014,20.922,72.014z M20.922,80.177c-1.604,0-2.91-1.305-2.91-2.909s1.305-2.91,2.91-2.91   c1.604,0,2.909,1.305,2.909,2.91S22.526,80.177,20.922,80.177z" />
            <path d="M79.079,64.164c-7.225,0-13.103,5.878-13.103,13.103S71.854,90.37,79.079,90.37s13.103-5.878,13.103-13.103   S86.304,64.164,79.079,64.164z M79.079,88.026c-5.933,0-10.759-4.827-10.759-10.759s4.827-10.759,10.759-10.759   s10.759,4.827,10.759,10.759S85.012,88.026,79.079,88.026z" />
            <path d="M79.079,72.014c-2.897,0-5.253,2.356-5.253,5.253s2.356,5.253,5.253,5.253s5.253-2.356,5.253-5.253   S81.976,72.014,79.079,72.014z M79.079,80.177c-1.604,0-2.909-1.305-2.909-2.909s1.305-2.91,2.909-2.91s2.91,1.305,2.91,2.91   S80.683,80.177,79.079,80.177z" />
            <path d="M41.783,67.197c-0.647,0-1.172,0.525-1.172,1.172v18.138c0,0.647,0.525,1.172,1.172,1.172c0.647,0,1.172-0.525,1.172-1.172   V68.369C42.955,67.722,42.43,67.197,41.783,67.197z" />
            <path d="M50,67.197c-0.647,0-1.172,0.525-1.172,1.172v14.09v4.048c0,0.647,0.525,1.172,1.172,1.172s1.172-0.525,1.172-1.172v-4.048   v-14.09C51.172,67.722,50.647,67.197,50,67.197z" />
            <path d="M58.217,67.197c-0.647,0-1.172,0.525-1.172,1.172v18.138c0,0.647,0.525,1.172,1.172,1.172c0.647,0,1.172-0.525,1.172-1.172   V68.369C59.389,67.722,58.865,67.197,58.217,67.197z" />
            <path d="M65.167,10.425c-0.652,0.026-1.16,0.576-1.133,1.228c0.026,0.636,0.549,1.134,1.18,1.134c0.016,0,0.032,0,0.048-0.001   c2.146-0.086,3.822-1.901,3.736-4.044c-0.087-2.146-1.898-3.824-4.049-3.736c-1.039,0.042-2,0.486-2.704,1.25   c-0.704,0.764-1.069,1.758-1.027,2.799c0.026,0.652,0.57,1.154,1.228,1.133c0.652-0.026,1.159-0.576,1.133-1.228   c-0.017-0.41,0.127-0.802,0.403-1.102c0.276-0.3,0.653-0.474,1.061-0.49c0.852-0.031,1.559,0.625,1.592,1.469   c0.016,0.407-0.127,0.797-0.404,1.097C65.954,10.235,65.576,10.409,65.167,10.425z" />
            <path d="M16.926,50.171c0.407-0.016,0.797,0.127,1.096,0.404c0.3,0.278,0.475,0.656,0.491,1.065   c0.026,0.652,0.576,1.16,1.228,1.133c0.636-0.026,1.134-0.549,1.134-1.18c0-0.016,0-0.032-0.001-0.048   c-0.086-2.146-1.901-3.822-4.044-3.736c-2.146,0.087-3.824,1.898-3.735,4.049c0.042,1.039,0.486,2,1.25,2.704   c0.764,0.704,1.758,1.069,2.799,1.027c0.652-0.026,1.154-0.57,1.133-1.228c-0.026-0.652-0.576-1.159-1.228-1.133   c-0.41,0.017-0.802-0.127-1.102-0.403c-0.3-0.276-0.474-0.653-0.49-1.061C15.427,50.912,16.082,50.205,16.926,50.171z" />
            <path d="M85.193,16.065c0.653,0,1.182-0.529,1.182-1.182v-2.16c0-0.653-0.529-1.182-1.182-1.182s-1.182,0.529-1.182,1.182v2.16   C84.011,15.536,84.54,16.065,85.193,16.065z" />
            <path d="M86.375,21.643v-2.161c0-0.653-0.529-1.182-1.182-1.182s-1.182,0.529-1.182,1.182v2.161c0,0.653,0.529,1.182,1.182,1.182   S86.375,22.295,86.375,21.643z" />
            <path d="M87.492,18.365h2.16c0.653,0,1.182-0.529,1.182-1.182c0-0.653-0.529-1.182-1.182-1.182h-2.16   c-0.653,0-1.182,0.529-1.182,1.182C86.311,17.836,86.84,18.365,87.492,18.365z" />
            <path d="M82.894,18.365c0.653,0,1.182-0.529,1.182-1.182c0-0.653-0.529-1.182-1.182-1.182h-2.16c-0.653,0-1.182,0.529-1.182,1.182   c0,0.653,0.529,1.182,1.182,1.182H82.894z" />
            <path d="M79.021,49.364c0.653,0,1.182-0.529,1.182-1.182v-2.16c0-0.653-0.529-1.182-1.182-1.182c-0.653,0-1.182,0.529-1.182,1.182   v2.16C77.839,48.835,78.368,49.364,79.021,49.364z" />
            <path d="M79.021,56.123c0.653,0,1.182-0.529,1.182-1.182v-2.161c0-0.653-0.529-1.182-1.182-1.182c-0.653,0-1.182,0.529-1.182,1.182   v2.161C77.839,55.594,78.368,56.123,79.021,56.123z" />
            <path d="M81.321,51.664h2.16c0.653,0,1.182-0.529,1.182-1.182S84.134,49.3,83.481,49.3h-2.16c-0.653,0-1.182,0.529-1.182,1.182   S80.668,51.664,81.321,51.664z" />
            <path d="M74.562,51.664h2.16c0.653,0,1.182-0.529,1.182-1.182S77.375,49.3,76.722,49.3h-2.16c-0.653,0-1.182,0.529-1.182,1.182   S73.909,51.664,74.562,51.664z" />
            <path d="M16.547,11.814c0-0.653-0.529-1.182-1.182-1.182c-0.653,0-1.182,0.529-1.182,1.182v2.16c0,0.653,0.529,1.182,1.182,1.182   c0.653,0,1.182-0.529,1.182-1.182V11.814z" />
            <path d="M14.183,18.573v2.161c0,0.653,0.529,1.182,1.182,1.182c0.653,0,1.182-0.529,1.182-1.182v-2.161   c0-0.653-0.529-1.182-1.182-1.182C14.712,17.391,14.183,17.92,14.183,18.573z" />
            <path d="M19.825,15.092h-2.16c-0.653,0-1.182,0.529-1.182,1.182s0.529,1.182,1.182,1.182h2.16c0.653,0,1.182-0.529,1.182-1.182   S20.478,15.092,19.825,15.092z" />
            <path d="M13.066,15.092h-2.16c-0.653,0-1.182,0.529-1.182,1.182s0.529,1.182,1.182,1.182h2.16c0.653,0,1.182-0.529,1.182-1.182   S13.719,15.092,13.066,15.092z" />
          </g>
        </svg>

