        <svg
          xmlns="http://www.w3.org/2000/svg"
          version="1.1"
          x="0px"
          y="0px"
          viewBox="0 0 64 64"
          fill="#e7decb"
        >
          <path d="M45,30v-6c0-2.414-1.721-4.434-4-4.899V4.5C41,2.57,39.43,1,37.5,1S34,2.57,34,4.5v8.851C33.544,13.133,33.039,13,32.5,13  c-0.98,0-1.864,0.407-2.5,1.058C29.364,13.407,28.48,13,27.5,13c-0.539,0-1.044,0.133-1.5,0.351V10.5C26,8.57,24.43,7,22.5,7  S19,8.57,19,10.5V30c0,3.525,2.042,6.574,5,8.05V43h-1c-0.552,0-1,0.447-1,1v3.142c-1.72,0.447-3,1.999-3,3.858s1.28,3.411,3,3.858  V63h2v-8.142c0.79-0.205,1.479-0.643,2-1.24C26.734,54.458,27.8,55,29,55s2.266-0.542,3-1.382C32.734,54.458,33.8,55,35,55  s2.266-0.542,3-1.382c0.521,0.597,1.21,1.035,2,1.24V63h2v-8.142c1.72-0.447,3-1.999,3-3.858s-1.28-3.411-3-3.858V44  c0-0.553-0.448-1-1-1h-1v-4.95C42.958,36.574,45,33.525,45,30z M36,4.5C36,3.673,36.673,3,37.5,3S39,3.673,39,4.5V19h-3v-2.5  c0-0.171-0.027-0.335-0.051-0.5H36V4.5z M32.5,15c0.827,0,1.5,0.673,1.5,1.5v2.851c-1.178,0.564-2,1.758-2,3.149  c0,0.936,0.375,1.784,0.976,2.412C32.823,24.964,32.665,25,32.5,25c-0.827,0-1.5-0.673-1.5-1.5v-7C31,15.673,31.673,15,32.5,15z   M27.5,15c0.827,0,1.5,0.673,1.5,1.5v7c0,0.827-0.673,1.5-1.5,1.5S26,24.327,26,23.5V23v-6.5C26,15.673,26.673,15,27.5,15z M40,45  v2.142c-0.79,0.205-1.479,0.643-2,1.24C37.266,47.542,36.2,47,35,47s-2.266,0.542-3,1.382C31.266,47.542,30.2,47,29,47  s-2.266,0.542-3,1.382c-0.521-0.597-1.21-1.035-2-1.24V45H40z M23,53c-1.103,0-2-0.897-2-2s0.897-2,2-2s2,0.897,2,2S24.103,53,23,53  z M29,53c-1.103,0-2-0.897-2-2s0.897-2,2-2s2,0.897,2,2S30.103,53,29,53z M35,53c-1.103,0-2-0.897-2-2s0.897-2,2-2s2,0.897,2,2  S36.103,53,35,53z M43,51c0,1.103-0.897,2-2,2s-2-0.897-2-2s0.897-2,2-2S43,49.897,43,51z M38,43H26v-4.232  C26.644,38.915,27.312,39,28,39v-2c-3.86,0-7-3.141-7-7V10.5C21,9.673,21.673,9,22.5,9S24,9.673,24,10.5v6V23v0.5  c0,1.93,1.57,3.5,3.5,3.5c0.98,0,1.864-0.407,2.5-1.058C30.636,26.593,31.52,27,32.5,27c0.945,0,1.824-0.394,2.476-1.053  C35.148,25.973,35.32,26,35.5,26H38v2c-2.757,0-5,2.243-5,5v2h2v-2c0-1.654,1.346-3,3-3h1c0.552,0,1-0.447,1-1v-4  c0-0.553-0.448-1-1-1h-3.5c-0.827,0-1.5-0.673-1.5-1.5s0.673-1.5,1.5-1.5H40c1.654,0,3,1.346,3,3v6c0,3.859-3.14,7-7,7v2  c0.688,0,1.356-0.085,2-0.232V43z" />
        </svg>

